# xmcd
# Track frame offsets:
# 150
# 17862
# 33004
# 47949
# 64524
# 79515
# 91955
# 105561
# 120995
# 131991
# 149641
# 164253
# 181641
# 198351
# 212373
#
# Disc length: 3052 seconds
# Revision: 0
# Processed by: cddbd v1.5.1PL0 Copyright (c) Steve Scherf et al.
# Submitted via: VisiTrax 2.9.10.228 - For more info visit www.synapsa.com
#
DISCID=c10bea0f
DTITLE=Harris, Emmylou - CB90016
DYEAR=1900
DGENRE=karaoke
TTITLE0=Beneath Still Waters
TTITLE1=Blue Kentucky Girl
TTITLE2=Heartbreak Hill
TTITLE3=Heaven Only Knows
TTITLE4=High Powered Love
TTITLE5=If I Could Only Win Your Love
TTITLE6=Lost His Love On Our First Date
TTITLE7=Making Believe
TTITLE8=Mr. Sandman
TTITLE9=Once More
TTITLE10=One Of These Days
TTITLE11=Rollin' And Ramblin'
TTITLE12=Save The Last Dance For Me
TTITLE13=Two More Bottles Of Wine
TTITLE14=Wayfaring Stranger
EXTD=
EXTT0=
EXTT1=
EXTT2=
EXTT3=
EXTT4=
EXTT5=
EXTT6=
EXTT7=
EXTT8=
EXTT9=
EXTT10=
EXTT11=
EXTT12=
EXTT13=
EXTT14=
PLAYORDER=
